<?xml version="1.0" standalone="no"?>
<!DOCTYPE svg PUBLIC "-//W3C//DTD SVG 20010904//EN"
 "http://www.w3.org/TR/2001/REC-SVG-20010904/DTD/svg10.dtd">
<svg version="1.0" xmlns="http://www.w3.org/2000/svg"
 width="512.000000pt" height="512.000000pt" viewBox="0 0 512.000000 512.000000"
 preserveAspectRatio="xMidYMid meet">

<g transform="translate(0.000000,512.000000) scale(0.100000,-0.100000)"
fill="#000000" stroke="none">
<path d="M2366 4840 c-54 -27 -74 -47 -102 -102 -28 -56 -32 -139 -9 -196 19
-46 1011 -1044 1067 -1072 122 -64 278 -3 322 127 19 55 20 79 5 141 -11 44
-45 80 -528 566 -349 350 -529 524 -556 537 -54 25 -147 25 -199 -1z"/>
<path d="M1762 3887 l-492 -492 460 -460 460 -460 493 493 492 492 -460 460
-460 460 -493 -493z"/>
<path d="M903 3380 c-76 -44 -107 -94 -111 -185 -3 -58 0 -80 16 -111 12 -23
233 -251 539 -555 548 -545 540 -539 630 -539 52 0 121 30 163 72 71 71 87
177 40 266 -28 56 -1026 1048 -1072 1067 -63 26 -145 20 -205 -15z"/>
<path d="M2752 2897 c-89 -89 -162 -165 -162 -169 0 -17 1526 -1728 1578
-1768 78 -62 150 -84 252 -78 311 18 458 371 258 619 -20 24 -1749 1559 -1757
1559 -3 0 -79 -73 -169 -163z"/>
<path d="M925 1461 c-83 -21 -167 -87 -207 -164 -18 -35 -23 -63 -26 -159 l-4
-118 947 0 947 0 -4 113 c-3 97 -8 119 -30 163 -31 60 -93 118 -157 148 -45
21 -54 21 -741 23 -382 0 -708 -2 -725 -6z"/>
<path d="M564 906 c-57 -18 -128 -71 -159 -118 -49 -73 -55 -108 -55 -293 l0
-173 29 -31 29 -31 1221 0 1221 0 32 29 33 29 0 184 c0 166 -2 187 -21 229
-30 64 -88 125 -148 157 l-51 27 -1045 2 c-837 1 -1053 -1 -1086 -11z"/>
</g>
</svg>
